<svg xmlns="http://www.w3.org/2000/svg" width="37.218" height="37.22" viewBox="0 0 37.218 37.22">
  <metadata><?xpacket begin="﻿" id="W5M0MpCehiHzreSzNTczkc9d"?>
<x:xmpmeta xmlns:x="adobe:ns:meta/" x:xmptk="Adobe XMP Core 5.6-c138 79.159824, 2016/09/14-01:09:01        ">
   <rdf:RDF xmlns:rdf="http://www.w3.org/1999/02/22-rdf-syntax-ns#">
      <rdf:Description rdf:about=""/>
   </rdf:RDF>
</x:xmpmeta>
                                                                                                    
                                                                                                    
                                                                                                    
                                                                                                    
                                                                                                    
                                                                                                    
                                                                                                    
                                                                                                    
                                                                                                    
                                                                                                    
                                                                                                    
                                                                                                    
                                                                                                    
                                                                                                    
                                                                                                    
                                                                                                    
                                                                                                    
                                                                                                    
                                                                                                    
                                                                                                    
                           
<?xpacket end="w"?></metadata>
<defs>
    <style>
      .cls-1 {
        fill: #fff;
        fill-rule: evenodd;
        opacity: 0.8;
      }
    </style>
  </defs>
  <path id="fb-icon" class="cls-1" d="M144.925,2349.24a18.62,18.62,0,1,1-18.619,18.62A18.616,18.616,0,0,1,144.925,2349.24Zm-0.06,2.99a15.69,15.69,0,1,1-15.692,15.69A15.687,15.687,0,0,1,144.865,2352.23Zm0,0a15.69,15.69,0,1,1-15.692,15.69A15.687,15.687,0,0,1,144.865,2352.23Zm0.773,24.99v-9.29h2.743l0.285-3.09h-3.028l0-1.86c0-.89.085-1.26,1.367-1.26h1.764v-3.42h-2.792c-3.294,0-4.082,1.54-4.082,4.34v2.2h-1.889v3.09H141.9v9.29h3.738Z" transform="translate(-126.313 -2349.25)"/>
</svg>
